solid pyramid_base
  facet normal 0 -1 0
    outer loop
      vertex 0 0 0
      vertex 1 0 0
      vertex 1 0 1
    endloop
  endfacet
  facet normal 0 -1 0
    outer loop
      vertex 0 0 0
      vertex 1 0 1
      vertex 0 0 1
    endloop
  endfacet
  facet normal 0 0.4472 0.8944
    outer loop
      vertex 0 0 1
      vertex 1 0 1
      vertex 0.5 1 0.5
    endloop
  endfacet
  facet normal 0 0.4472 -0.8944
    outer loop
      vertex 0 0 0
      vertex 0.5 1 0.5
      vertex 1 0 0
    endloop
  endfacet
endsolid pyramid_base
